<?xml version="1.0" encoding="UTF-8"?>
<svg xmlns="http://www.w3.org/2000/svg" version="1.1" viewBox="0 0 948.57 216.82">
  <!-- Generator: Adobe Illustrator 29.3.1, SVG Export Plug-In . SVG Version: 2.1.0 Build 151)  -->
  <defs>
    <style>
      .st0 {
        fill: none;
        stroke: #989898;
        stroke-miterlimit: 10;
        stroke-width: .25px;
      }

      .st1 {
        fill: #000102;
      }

      .st2 {
        display: none;
      }
    </style>
  </defs>
  <g id="_그리드" data-name="그리드" class="st2">
    <g>
      <rect class="st0" x="867.27" y="27.1" width="27.1" height="27.1"/>
      <rect class="st0" x="894.37" y="27.1" width="27.1" height="27.1"/>
      <rect class="st0" x="921.47" y="27.1" width="27.1" height="27.1"/>
      <rect class="st0" x="867.27" width="27.1" height="27.1"/>
      <rect class="st0" x="894.37" y="0" width="27.1" height="27.1"/>
      <rect class="st0" x="921.47" y="0" width="27.1" height="27.1"/>
      <rect class="st0" x="867.27" y="81.31" width="27.1" height="27.1"/>
      <rect class="st0" x="894.37" y="81.31" width="27.1" height="27.1"/>
      <rect class="st0" x="921.47" y="81.31" width="27.1" height="27.1"/>
      <rect class="st0" x="867.27" y="54.2" width="27.1" height="27.1"/>
      <rect class="st0" x="894.37" y="54.2" width="27.1" height="27.1"/>
      <rect class="st0" x="921.47" y="54.2" width="27.1" height="27.1"/>
      <rect class="st0" x="867.27" y="135.51" width="27.1" height="27.1"/>
      <rect class="st0" x="894.37" y="135.51" width="27.1" height="27.1"/>
      <rect class="st0" x="921.47" y="135.51" width="27.1" height="27.1"/>
      <rect class="st0" x="867.27" y="108.41" width="27.1" height="27.1"/>
      <rect class="st0" x="894.37" y="108.41" width="27.1" height="27.1"/>
      <rect class="st0" x="921.47" y="108.41" width="27.1" height="27.1"/>
      <rect class="st0" x="867.27" y="189.71" width="27.1" height="27.1"/>
      <rect class="st0" x="894.37" y="189.71" width="27.1" height="27.1"/>
      <rect class="st0" x="921.47" y="189.71" width="27.1" height="27.1"/>
      <rect class="st0" x="867.27" y="162.61" width="27.1" height="27.1"/>
      <rect class="st0" x="894.37" y="162.61" width="27.1" height="27.1"/>
      <rect class="st0" x="921.47" y="162.61" width="27.1" height="27.1"/>
      <g>
        <g>
          <g>
            <rect class="st0" x="758.86" y="27.1" width="27.1" height="27.1"/>
            <rect class="st0" x="840.16" y="27.1" width="27.1" height="27.1"/>
            <rect class="st0" x="785.96" y="27.1" width="27.1" height="27.1"/>
            <rect class="st0" x="813.06" y="27.1" width="27.1" height="27.1"/>
          </g>
          <g>
            <rect class="st0" x="758.86" width="27.1" height="27.1"/>
            <rect class="st0" x="840.16" y="0" width="27.1" height="27.1"/>
            <rect class="st0" x="785.96" y="0" width="27.1" height="27.1"/>
            <rect class="st0" x="813.06" y="0" width="27.1" height="27.1"/>
          </g>
        </g>
        <g>
          <g>
            <rect class="st0" x="758.86" y="81.31" width="27.1" height="27.1"/>
            <rect class="st0" x="840.16" y="81.31" width="27.1" height="27.1"/>
            <rect class="st0" x="785.96" y="81.31" width="27.1" height="27.1"/>
            <rect class="st0" x="813.06" y="81.31" width="27.1" height="27.1"/>
          </g>
          <g>
            <rect class="st0" x="758.86" y="54.2" width="27.1" height="27.1"/>
            <rect class="st0" x="840.16" y="54.2" width="27.1" height="27.1"/>
            <rect class="st0" x="785.96" y="54.2" width="27.1" height="27.1"/>
            <rect class="st0" x="813.06" y="54.2" width="27.1" height="27.1"/>
          </g>
        </g>
        <g>
          <g>
            <rect class="st0" x="758.86" y="135.51" width="27.1" height="27.1"/>
            <rect class="st0" x="840.16" y="135.51" width="27.1" height="27.1"/>
            <rect class="st0" x="785.96" y="135.51" width="27.1" height="27.1"/>
            <rect class="st0" x="813.06" y="135.51" width="27.1" height="27.1"/>
          </g>
          <g>
            <rect class="st0" x="758.86" y="108.41" width="27.1" height="27.1"/>
            <rect class="st0" x="840.16" y="108.41" width="27.1" height="27.1"/>
            <rect class="st0" x="785.96" y="108.41" width="27.1" height="27.1"/>
            <rect class="st0" x="813.06" y="108.41" width="27.1" height="27.1"/>
          </g>
        </g>
        <g>
          <g>
            <rect class="st0" x="758.86" y="189.71" width="27.1" height="27.1"/>
            <rect class="st0" x="840.16" y="189.71" width="27.1" height="27.1"/>
            <rect class="st0" x="785.96" y="189.71" width="27.1" height="27.1"/>
            <rect class="st0" x="813.06" y="189.71" width="27.1" height="27.1"/>
          </g>
          <g>
            <rect class="st0" x="758.86" y="162.61" width="27.1" height="27.1"/>
            <rect class="st0" x="840.16" y="162.61" width="27.1" height="27.1"/>
            <rect class="st0" x="785.96" y="162.61" width="27.1" height="27.1"/>
            <rect class="st0" x="813.06" y="162.61" width="27.1" height="27.1"/>
          </g>
        </g>
      </g>
      <g>
        <g>
          <g>
            <rect class="st0" x="650.45" y="27.1" width="27.1" height="27.1"/>
            <rect class="st0" x="731.76" y="27.1" width="27.1" height="27.1"/>
            <rect class="st0" x="677.55" y="27.1" width="27.1" height="27.1"/>
            <rect class="st0" x="704.65" y="27.1" width="27.1" height="27.1"/>
          </g>
          <g>
            <rect class="st0" x="650.45" width="27.1" height="27.1"/>
            <rect class="st0" x="731.76" y="0" width="27.1" height="27.1"/>
            <rect class="st0" x="677.55" y="0" width="27.1" height="27.1"/>
            <rect class="st0" x="704.65" y="0" width="27.1" height="27.1"/>
          </g>
        </g>
        <g>
          <g>
            <rect class="st0" x="650.45" y="81.31" width="27.1" height="27.1"/>
            <rect class="st0" x="731.76" y="81.31" width="27.1" height="27.1"/>
            <rect class="st0" x="677.55" y="81.31" width="27.1" height="27.1"/>
            <rect class="st0" x="704.65" y="81.31" width="27.1" height="27.1"/>
          </g>
          <g>
            <rect class="st0" x="650.45" y="54.2" width="27.1" height="27.1"/>
            <rect class="st0" x="731.76" y="54.2" width="27.1" height="27.1"/>
            <rect class="st0" x="677.55" y="54.2" width="27.1" height="27.1"/>
            <rect class="st0" x="704.65" y="54.2" width="27.1" height="27.1"/>
          </g>
        </g>
        <g>
          <g>
            <rect class="st0" x="650.45" y="135.51" width="27.1" height="27.1"/>
            <rect class="st0" x="731.76" y="135.51" width="27.1" height="27.1"/>
            <rect class="st0" x="677.55" y="135.51" width="27.1" height="27.1"/>
            <rect class="st0" x="704.65" y="135.51" width="27.1" height="27.1"/>
          </g>
          <g>
            <rect class="st0" x="650.45" y="108.41" width="27.1" height="27.1"/>
            <rect class="st0" x="731.76" y="108.41" width="27.1" height="27.1"/>
            <rect class="st0" x="677.55" y="108.41" width="27.1" height="27.1"/>
            <rect class="st0" x="704.65" y="108.41" width="27.1" height="27.1"/>
          </g>
        </g>
        <g>
          <g>
            <rect class="st0" x="650.45" y="189.71" width="27.1" height="27.1"/>
            <rect class="st0" x="731.76" y="189.71" width="27.1" height="27.1"/>
            <rect class="st0" x="677.55" y="189.71" width="27.1" height="27.1"/>
            <rect class="st0" x="704.65" y="189.71" width="27.1" height="27.1"/>
          </g>
          <g>
            <rect class="st0" x="650.45" y="162.61" width="27.1" height="27.1"/>
            <rect class="st0" x="731.76" y="162.61" width="27.1" height="27.1"/>
            <rect class="st0" x="677.55" y="162.61" width="27.1" height="27.1"/>
            <rect class="st0" x="704.65" y="162.61" width="27.1" height="27.1"/>
          </g>
        </g>
      </g>
      <g>
        <g>
          <g>
            <rect class="st0" x="542.04" y="27.1" width="27.1" height="27.1"/>
            <rect class="st0" x="623.35" y="27.1" width="27.1" height="27.1"/>
            <rect class="st0" x="569.14" y="27.1" width="27.1" height="27.1"/>
            <rect class="st0" x="596.25" y="27.1" width="27.1" height="27.1"/>
          </g>
          <g>
            <rect class="st0" x="542.04" width="27.1" height="27.1"/>
            <rect class="st0" x="623.35" y="0" width="27.1" height="27.1"/>
            <rect class="st0" x="569.14" y="0" width="27.1" height="27.1"/>
            <rect class="st0" x="596.25" y="0" width="27.1" height="27.1"/>
          </g>
        </g>
        <g>
          <g>
            <rect class="st0" x="542.04" y="81.31" width="27.1" height="27.1"/>
            <rect class="st0" x="623.35" y="81.31" width="27.1" height="27.1"/>
            <rect class="st0" x="569.14" y="81.31" width="27.1" height="27.1"/>
            <rect class="st0" x="596.25" y="81.31" width="27.1" height="27.1"/>
          </g>
          <g>
            <rect class="st0" x="542.04" y="54.2" width="27.1" height="27.1"/>
            <rect class="st0" x="623.35" y="54.2" width="27.1" height="27.1"/>
            <rect class="st0" x="569.14" y="54.2" width="27.1" height="27.1"/>
            <rect class="st0" x="596.25" y="54.2" width="27.1" height="27.1"/>
          </g>
        </g>
        <g>
          <g>
            <rect class="st0" x="542.04" y="135.51" width="27.1" height="27.1"/>
            <rect class="st0" x="623.35" y="135.51" width="27.1" height="27.1"/>
            <rect class="st0" x="569.14" y="135.51" width="27.1" height="27.1"/>
            <rect class="st0" x="596.25" y="135.51" width="27.1" height="27.1"/>
          </g>
          <g>
            <rect class="st0" x="542.04" y="108.41" width="27.1" height="27.1"/>
            <rect class="st0" x="623.35" y="108.41" width="27.1" height="27.1"/>
            <rect class="st0" x="569.14" y="108.41" width="27.1" height="27.1"/>
            <rect class="st0" x="596.25" y="108.41" width="27.1" height="27.1"/>
          </g>
        </g>
        <g>
          <g>
            <rect class="st0" x="542.04" y="189.71" width="27.1" height="27.1"/>
            <rect class="st0" x="623.35" y="189.71" width="27.1" height="27.1"/>
            <rect class="st0" x="569.14" y="189.71" width="27.1" height="27.1"/>
            <rect class="st0" x="596.25" y="189.71" width="27.1" height="27.1"/>
          </g>
          <g>
            <rect class="st0" x="542.04" y="162.61" width="27.1" height="27.1"/>
            <rect class="st0" x="623.35" y="162.61" width="27.1" height="27.1"/>
            <rect class="st0" x="569.14" y="162.61" width="27.1" height="27.1"/>
            <rect class="st0" x="596.25" y="162.61" width="27.1" height="27.1"/>
          </g>
        </g>
      </g>
      <g>
        <g>
          <g>
            <rect class="st0" x="433.63" y="27.1" width="27.1" height="27.1"/>
            <rect class="st0" x="514.94" y="27.1" width="27.1" height="27.1"/>
            <rect class="st0" x="460.74" y="27.1" width="27.1" height="27.1"/>
            <rect class="st0" x="487.84" y="27.1" width="27.1" height="27.1"/>
          </g>
          <g>
            <rect class="st0" x="433.63" width="27.1" height="27.1"/>
            <rect class="st0" x="514.94" y="0" width="27.1" height="27.1"/>
            <rect class="st0" x="460.74" y="0" width="27.1" height="27.1"/>
            <rect class="st0" x="487.84" y="0" width="27.1" height="27.1"/>
          </g>
        </g>
        <g>
          <g>
            <rect class="st0" x="433.63" y="81.31" width="27.1" height="27.1"/>
            <rect class="st0" x="514.94" y="81.31" width="27.1" height="27.1"/>
            <rect class="st0" x="460.74" y="81.31" width="27.1" height="27.1"/>
            <rect class="st0" x="487.84" y="81.31" width="27.1" height="27.1"/>
          </g>
          <g>
            <rect class="st0" x="433.63" y="54.2" width="27.1" height="27.1"/>
            <rect class="st0" x="514.94" y="54.2" width="27.1" height="27.1"/>
            <rect class="st0" x="460.74" y="54.2" width="27.1" height="27.1"/>
            <rect class="st0" x="487.84" y="54.2" width="27.1" height="27.1"/>
          </g>
        </g>
        <g>
          <g>
            <rect class="st0" x="433.63" y="135.51" width="27.1" height="27.1"/>
            <rect class="st0" x="514.94" y="135.51" width="27.1" height="27.1"/>
            <rect class="st0" x="460.74" y="135.51" width="27.1" height="27.1"/>
            <rect class="st0" x="487.84" y="135.51" width="27.1" height="27.1"/>
          </g>
          <g>
            <rect class="st0" x="433.63" y="108.41" width="27.1" height="27.1"/>
            <rect class="st0" x="514.94" y="108.41" width="27.1" height="27.1"/>
            <rect class="st0" x="460.74" y="108.41" width="27.1" height="27.1"/>
            <rect class="st0" x="487.84" y="108.41" width="27.1" height="27.1"/>
          </g>
        </g>
        <g>
          <g>
            <rect class="st0" x="433.63" y="189.71" width="27.1" height="27.1"/>
            <rect class="st0" x="514.94" y="189.71" width="27.1" height="27.1"/>
            <rect class="st0" x="460.74" y="189.71" width="27.1" height="27.1"/>
            <rect class="st0" x="487.84" y="189.71" width="27.1" height="27.1"/>
          </g>
          <g>
            <rect class="st0" x="433.63" y="162.61" width="27.1" height="27.1"/>
            <rect class="st0" x="514.94" y="162.61" width="27.1" height="27.1"/>
            <rect class="st0" x="460.74" y="162.61" width="27.1" height="27.1"/>
            <rect class="st0" x="487.84" y="162.61" width="27.1" height="27.1"/>
          </g>
        </g>
      </g>
      <g>
        <g>
          <g>
            <rect class="st0" x="325.23" y="27.1" width="27.1" height="27.1"/>
            <rect class="st0" x="406.53" y="27.1" width="27.1" height="27.1"/>
            <rect class="st0" x="352.33" y="27.1" width="27.1" height="27.1"/>
            <rect class="st0" x="379.43" y="27.1" width="27.1" height="27.1"/>
          </g>
          <g>
            <rect class="st0" x="325.23" width="27.1" height="27.1"/>
            <rect class="st0" x="406.53" y="0" width="27.1" height="27.1"/>
            <rect class="st0" x="352.33" y="0" width="27.1" height="27.1"/>
            <rect class="st0" x="379.43" y="0" width="27.1" height="27.1"/>
          </g>
        </g>
        <g>
          <g>
            <rect class="st0" x="325.23" y="81.31" width="27.1" height="27.1"/>
            <rect class="st0" x="406.53" y="81.31" width="27.1" height="27.1"/>
            <rect class="st0" x="352.33" y="81.31" width="27.1" height="27.1"/>
            <rect class="st0" x="379.43" y="81.31" width="27.1" height="27.1"/>
          </g>
          <g>
            <rect class="st0" x="325.23" y="54.2" width="27.1" height="27.1"/>
            <rect class="st0" x="406.53" y="54.2" width="27.1" height="27.1"/>
            <rect class="st0" x="352.33" y="54.2" width="27.1" height="27.1"/>
            <rect class="st0" x="379.43" y="54.2" width="27.1" height="27.1"/>
          </g>
        </g>
        <g>
          <g>
            <rect class="st0" x="325.23" y="135.51" width="27.1" height="27.1"/>
            <rect class="st0" x="406.53" y="135.51" width="27.1" height="27.1"/>
            <rect class="st0" x="352.33" y="135.51" width="27.1" height="27.1"/>
            <rect class="st0" x="379.43" y="135.51" width="27.1" height="27.1"/>
          </g>
          <g>
            <rect class="st0" x="325.23" y="108.41" width="27.1" height="27.1"/>
            <rect class="st0" x="406.53" y="108.41" width="27.1" height="27.1"/>
            <rect class="st0" x="352.33" y="108.41" width="27.1" height="27.1"/>
            <rect class="st0" x="379.43" y="108.41" width="27.1" height="27.1"/>
          </g>
        </g>
        <g>
          <g>
            <rect class="st0" x="325.23" y="189.71" width="27.1" height="27.1"/>
            <rect class="st0" x="406.53" y="189.71" width="27.1" height="27.1"/>
            <rect class="st0" x="352.33" y="189.71" width="27.1" height="27.1"/>
            <rect class="st0" x="379.43" y="189.71" width="27.1" height="27.1"/>
          </g>
          <g>
            <rect class="st0" x="325.23" y="162.61" width="27.1" height="27.1"/>
            <rect class="st0" x="406.53" y="162.61" width="27.1" height="27.1"/>
            <rect class="st0" x="352.33" y="162.61" width="27.1" height="27.1"/>
            <rect class="st0" x="379.43" y="162.61" width="27.1" height="27.1"/>
          </g>
        </g>
      </g>
      <g>
        <g>
          <g>
            <rect class="st0" x="216.82" y="27.1" width="27.1" height="27.1"/>
            <rect class="st0" x="298.12" y="27.1" width="27.1" height="27.1"/>
            <rect class="st0" x="243.92" y="27.1" width="27.1" height="27.1"/>
            <rect class="st0" x="271.02" y="27.1" width="27.1" height="27.1"/>
          </g>
          <g>
            <rect class="st0" x="216.82" width="27.1" height="27.1"/>
            <rect class="st0" x="298.12" y="0" width="27.1" height="27.1"/>
            <rect class="st0" x="243.92" y="0" width="27.1" height="27.1"/>
            <rect class="st0" x="271.02" y="0" width="27.1" height="27.1"/>
          </g>
        </g>
        <g>
          <g>
            <rect class="st0" x="216.82" y="81.31" width="27.1" height="27.1"/>
            <rect class="st0" x="298.12" y="81.31" width="27.1" height="27.1"/>
            <rect class="st0" x="243.92" y="81.31" width="27.1" height="27.1"/>
            <rect class="st0" x="271.02" y="81.31" width="27.1" height="27.1"/>
          </g>
          <g>
            <rect class="st0" x="216.82" y="54.2" width="27.1" height="27.1"/>
            <rect class="st0" x="298.12" y="54.2" width="27.1" height="27.1"/>
            <rect class="st0" x="243.92" y="54.2" width="27.1" height="27.1"/>
            <rect class="st0" x="271.02" y="54.2" width="27.1" height="27.1"/>
          </g>
        </g>
        <g>
          <g>
            <rect class="st0" x="216.82" y="135.51" width="27.1" height="27.1"/>
            <rect class="st0" x="298.12" y="135.51" width="27.1" height="27.1"/>
            <rect class="st0" x="243.92" y="135.51" width="27.1" height="27.1"/>
            <rect class="st0" x="271.02" y="135.51" width="27.1" height="27.1"/>
          </g>
          <g>
            <rect class="st0" x="216.82" y="108.41" width="27.1" height="27.1"/>
            <rect class="st0" x="298.12" y="108.41" width="27.1" height="27.1"/>
            <rect class="st0" x="243.92" y="108.41" width="27.1" height="27.1"/>
            <rect class="st0" x="271.02" y="108.41" width="27.1" height="27.1"/>
          </g>
        </g>
        <g>
          <g>
            <rect class="st0" x="216.82" y="189.71" width="27.1" height="27.1"/>
            <rect class="st0" x="298.12" y="189.71" width="27.1" height="27.1"/>
            <rect class="st0" x="243.92" y="189.71" width="27.1" height="27.1"/>
            <rect class="st0" x="271.02" y="189.71" width="27.1" height="27.1"/>
          </g>
          <g>
            <rect class="st0" x="216.82" y="162.61" width="27.1" height="27.1"/>
            <rect class="st0" x="298.12" y="162.61" width="27.1" height="27.1"/>
            <rect class="st0" x="243.92" y="162.61" width="27.1" height="27.1"/>
            <rect class="st0" x="271.02" y="162.61" width="27.1" height="27.1"/>
          </g>
        </g>
      </g>
      <g>
        <g>
          <g>
            <rect class="st0" x="108.41" y="27.1" width="27.1" height="27.1"/>
            <rect class="st0" x="189.71" y="27.1" width="27.1" height="27.1"/>
            <rect class="st0" x="135.51" y="27.1" width="27.1" height="27.1"/>
            <rect class="st0" x="162.61" y="27.1" width="27.1" height="27.1"/>
          </g>
          <g>
            <rect class="st0" x="108.41" width="27.1" height="27.1"/>
            <rect class="st0" x="189.71" y="0" width="27.1" height="27.1"/>
            <rect class="st0" x="135.51" y="0" width="27.1" height="27.1"/>
            <rect class="st0" x="162.61" y="0" width="27.1" height="27.1"/>
          </g>
        </g>
        <g>
          <g>
            <rect class="st0" x="108.41" y="81.31" width="27.1" height="27.1"/>
            <rect class="st0" x="189.71" y="81.31" width="27.1" height="27.1"/>
            <rect class="st0" x="135.51" y="81.31" width="27.1" height="27.1"/>
            <rect class="st0" x="162.61" y="81.31" width="27.1" height="27.1"/>
          </g>
          <g>
            <rect class="st0" x="108.41" y="54.2" width="27.1" height="27.1"/>
            <rect class="st0" x="189.71" y="54.2" width="27.1" height="27.1"/>
            <rect class="st0" x="135.51" y="54.2" width="27.1" height="27.1"/>
            <rect class="st0" x="162.61" y="54.2" width="27.1" height="27.1"/>
          </g>
        </g>
        <g>
          <g>
            <rect class="st0" x="108.41" y="135.51" width="27.1" height="27.1"/>
            <rect class="st0" x="189.71" y="135.51" width="27.1" height="27.1"/>
            <rect class="st0" x="135.51" y="135.51" width="27.1" height="27.1"/>
            <rect class="st0" x="162.61" y="135.51" width="27.1" height="27.1"/>
          </g>
          <g>
            <rect class="st0" x="108.41" y="108.41" width="27.1" height="27.1"/>
            <rect class="st0" x="189.71" y="108.41" width="27.1" height="27.1"/>
            <rect class="st0" x="135.51" y="108.41" width="27.1" height="27.1"/>
            <rect class="st0" x="162.61" y="108.41" width="27.1" height="27.1"/>
          </g>
        </g>
        <g>
          <g>
            <rect class="st0" x="108.41" y="189.71" width="27.1" height="27.1"/>
            <rect class="st0" x="189.71" y="189.71" width="27.1" height="27.1"/>
            <rect class="st0" x="135.51" y="189.71" width="27.1" height="27.1"/>
            <rect class="st0" x="162.61" y="189.71" width="27.1" height="27.1"/>
          </g>
          <g>
            <rect class="st0" x="108.41" y="162.61" width="27.1" height="27.1"/>
            <rect class="st0" x="189.71" y="162.61" width="27.1" height="27.1"/>
            <rect class="st0" x="135.51" y="162.61" width="27.1" height="27.1"/>
            <rect class="st0" x="162.61" y="162.61" width="27.1" height="27.1"/>
          </g>
        </g>
      </g>
      <g>
        <g>
          <g>
            <rect class="st0" y="27.1" width="27.1" height="27.1"/>
            <rect class="st0" x="81.31" y="27.1" width="27.1" height="27.1"/>
            <rect class="st0" x="27.1" y="27.1" width="27.1" height="27.1"/>
            <rect class="st0" x="54.2" y="27.1" width="27.1" height="27.1"/>
          </g>
          <g>
            <rect class="st0" width="27.1" height="27.1"/>
            <rect class="st0" x="81.31" y="0" width="27.1" height="27.1"/>
            <rect class="st0" x="27.1" y="0" width="27.1" height="27.1"/>
            <rect class="st0" x="54.2" y="0" width="27.1" height="27.1"/>
          </g>
        </g>
        <g>
          <g>
            <rect class="st0" y="81.31" width="27.1" height="27.1"/>
            <rect class="st0" x="81.31" y="81.31" width="27.1" height="27.1"/>
            <rect class="st0" x="27.1" y="81.31" width="27.1" height="27.1"/>
            <rect class="st0" x="54.2" y="81.31" width="27.1" height="27.1"/>
          </g>
          <g>
            <rect class="st0" y="54.2" width="27.1" height="27.1"/>
            <rect class="st0" x="81.31" y="54.2" width="27.1" height="27.1"/>
            <rect class="st0" x="27.1" y="54.2" width="27.1" height="27.1"/>
            <rect class="st0" x="54.2" y="54.2" width="27.1" height="27.1"/>
          </g>
        </g>
        <g>
          <g>
            <rect class="st0" y="135.51" width="27.1" height="27.1"/>
            <rect class="st0" x="81.31" y="135.51" width="27.1" height="27.1"/>
            <rect class="st0" x="27.1" y="135.51" width="27.1" height="27.1"/>
            <rect class="st0" x="54.2" y="135.51" width="27.1" height="27.1"/>
          </g>
          <g>
            <rect class="st0" y="108.41" width="27.1" height="27.1"/>
            <rect class="st0" x="81.31" y="108.41" width="27.1" height="27.1"/>
            <rect class="st0" x="27.1" y="108.41" width="27.1" height="27.1"/>
            <rect class="st0" x="54.2" y="108.41" width="27.1" height="27.1"/>
          </g>
        </g>
        <g>
          <g>
            <rect class="st0" y="189.71" width="27.1" height="27.1"/>
            <rect class="st0" x="81.31" y="189.71" width="27.1" height="27.1"/>
            <rect class="st0" x="27.1" y="189.71" width="27.1" height="27.1"/>
            <rect class="st0" x="54.2" y="189.71" width="27.1" height="27.1"/>
          </g>
          <g>
            <rect class="st0" y="162.61" width="27.1" height="27.1"/>
            <rect class="st0" x="81.31" y="162.61" width="27.1" height="27.1"/>
            <rect class="st0" x="27.1" y="162.61" width="27.1" height="27.1"/>
            <rect class="st0" x="54.2" y="162.61" width="27.1" height="27.1"/>
          </g>
        </g>
      </g>
    </g>
  </g>
  <g id="_영문로고_x2B_서브텍스트" data-name="영문로고_x2B_서브텍스트">
    <g>
      <path class="st1" d="M76.48,161.94c-9.59,0-16.3-9.44-19.96-28.05-1.91-14.88-2.32-19.49-2.32-20.73v-2.78c0-18.35.44-30.43,1.32-35.92l.04-.5c0-6.72,4.86-11.82,14.86-15.57,6.31-1.99,13.24-3,20.61-3,.37,0,.73,0,1.1,0,8.04.04,16.07,1.92,23.9,5.58,6.9,4.47,11.84,10.67,14.68,18.43,1.16,4.11,1.75,7.89,1.75,11.25,0,12.71-4.01,22.35-12.25,29.48-5.71,4.33-12.87,6.52-21.26,6.52l-2.2.88c-1.46,1.39-2.34,4.02-3.02,9.07-1.46,6.72-3.09,11.54-4.87,14.33-3,5.07-7.54,11.01-12.38,11.01ZM98.24,85.8c-1.22,0-3.53.43-5.26,3.35-.99,1.68-1.49,3.66-1.49,5.89s.5,4.21,1.5,5.88c1.73,2.89,4.03,3.32,5.25,3.32s3.57-.43,5.28-3.34c.98-1.67,1.48-3.64,1.48-5.87s-.49-4.2-1.47-5.87c-1.71-2.93-4.05-3.37-5.29-3.37Z"/>
      <path class="st1" d="M164.64,162.29c-.07,0-2.04-.22-7.65-6.41-2.48-3.64-4.4-7.59-5.7-11.72-3.37-13.79-5.08-26.02-5.08-36.37,0-14.01,1.52-26.05,4.51-35.77,4-10.6,9.03-15.98,14.95-15.98.34,0,1.59.2,3.75,2.8,5.1,7.33,8.31,17.27,9.52,29.57.06,2.1,1.2,5.56,7.78,6.56h.96c6.61-1,7.76-4.46,7.82-6.56,1.21-12.29,4.43-22.24,9.56-29.57,2.12-2.6,3.37-2.8,3.71-2.8,5.92,0,10.95,5.38,14.95,15.98,2.99,9.72,4.51,21.76,4.51,35.77,0,10.35-1.71,22.59-5.08,36.37-1.28,4.13-3.19,8.07-5.69,11.71-5.54,6.1-7.53,6.4-7.67,6.41-1.71,0-4.02-2.17-6.34-5.93-2.4-3.96-4.38-10.17-5.87-18.44-.32-4.36-6.53-4.5-10.28-4.59h-.14c-3.76.08-10,.23-10.32,4.59-1.49,8.27-3.47,14.48-5.88,18.46-2.31,3.75-4.62,5.92-6.33,5.92Z"/>
      <path class="st1" d="M282.21,162.65c-7.42,0-14.88-3.36-22.18-9.98-5.21-5.41-9.26-11.83-12.05-19.08-2.58-8.62-3.58-18.65-2.97-29.81,1.03-10.46,4.43-20.64,10.09-30.26l.1-.19c1.93-3.85,5.36-8.06,10.18-12.52,4.94-3.77,10.8-5.61,17.92-5.61,7.97.08,14.33,1.57,18.85,4.44l.53.27c2.91,1.16,6.46,3.76,10.57,7.74,4.12,5.42,6.91,11.85,8.28,19.13.51,3.4.96,8.36,1.31,14.76-.01,8.62-1.53,18.05-4.51,28.02-2.94,9.15-8.51,17.59-16.53,25.05-7.33,5.33-13.92,8.02-19.59,8.02ZM286.31,88.68c-5.43,0-7.32,7.42-8.46,14.68l-.02.19c-.14,1.45-.21,2.91-.21,4.34,0,4.4,0,16.08,7.27,16.08,4.58,0,6.85-5.47,8.32-10.23.52-1.87.76-4.58.76-8.63v-1.84c0-3.03,0-12.23-6.43-14.43l-1.03-.17h-.19Z"/>
      <path class="st1" d="M382.73,161.94c-6.39-.09-12.02-5.88-16.69-17.23-2.79-8.78-4.2-18.46-4.2-28.77,0-3.71,1.07-9.71,3.19-17.82l.1-.81c0-1.27-.51-5.4-7.04-5.4-5.11,0-10.7-2.07-16.62-6.14-3.43-3.22-5.11-6.44-5.11-9.83,0-1.47.83-4.1,4.73-8.34,10.41-8.33,22.39-12.55,35.62-12.55,17.32,0,23.57.68,25.76,1.25,9.7,2.81,16.41,6.73,19.86,11.63,3.15,4.38,3.81,7.06,3.81,8.55v.84c-.03,2.43-.13,9.93-15.25,13.86-8.02.34-9.41.9-10.46,2l-.83,1.61-.26,1.36.04,1.39c1.56,6.1,2.35,12.02,2.35,17.58,0,9.85-1.74,20.06-5.16,30.37-4.22,10.42-8.77,16.25-12.81,16.44h-1.04Z"/>
      <path class="st1" d="M476.73,162.65c-7.42,0-14.88-3.36-22.18-9.98-5.21-5.41-9.26-11.83-12.05-19.08-2.58-8.62-3.58-18.65-2.97-29.81,1.03-10.46,4.43-20.64,10.09-30.26l.1-.19c1.93-3.85,5.36-8.06,10.18-12.52,4.94-3.77,10.8-5.61,17.92-5.61,7.97.08,14.33,1.57,18.85,4.44l.53.27c2.91,1.16,6.46,3.76,10.57,7.74,4.12,5.42,6.91,11.85,8.28,19.13.51,3.4.96,8.36,1.31,14.76-.01,8.62-1.53,18.05-4.51,28.02-2.94,9.15-8.51,17.59-16.53,25.05-7.33,5.33-13.92,8.02-19.59,8.02ZM480.83,88.68c-5.43,0-7.32,7.42-8.46,14.68l-.02.19c-.14,1.45-.21,2.91-.21,4.34,0,4.4,0,16.08,7.27,16.08,4.58,0,6.85-5.47,8.32-10.23.52-1.87.76-4.58.76-8.63v-1.84c0-3.03,0-12.23-6.43-14.43l-1.03-.17h-.19Z"/>
      <path class="st1" d="M574.44,161.64c-9.84,0-20.04-4.95-30.33-14.72-5.74-6.84-9.62-14.4-11.5-22.46-.89-4.58-1.42-8.7-1.58-12.23l-.13-3.24c-.32-7.14,2.01-16.67,6.92-28.33,1.65-4.01,5.22-9.03,10.61-14.95,6.14-4.88,13.17-8.11,20.89-9.6,2.52-.53,5.09-.79,7.7-.79,4.18,0,8.6.68,13.13,2.01,9.55,5.18,14.53,10.95,14.82,17.16.16,3.56-1.29,7.08-4.43,10.75l-.08.1c-3.21,4.06-6.29,6.35-8.94,6.63l-9.82-2.16-.21-.04c-1.03-.16-1.92-.23-2.71-.23-.12,0-.24,0-.35,0-6.31.27-11.75,5.02-16.21,14.13l-.09.19c-1.16,2.83-1.69,5.78-1.56,8.75.27,6.15,3.35,10.6,8.92,12.87,2.32,1.08,4.8,1.63,7.37,1.63.23,0,.45,0,.68-.01l2.22-.1c1.43-.06,4.11-.75,13.86-5.27l.54-.03c1.24,0,4.07.84,9.06,6.47,1.23,1.93,1.81,4.14,1.77,6.76v.19c.13,2.68-1.11,7.74-7.67,16.59-5.19,6.15-7.95,7.56-9.13,7.85l-.27.08c-3.14,1.08-7.23,1.74-12.15,1.96-.44.02-.88.03-1.32.03Z"/>
      <path class="st1" d="M631.15,161.79c-3.37,0-7.39-.99-8.69-8.64-.29-4.03,2.29-9.66,7.48-16.3,13.69-17.98,17.16-23.38,17.99-25.67.33-.63.52-1.46.44-2.52l-.07-.85c-.15-1.96-1.52-4.03-7.98-8.77-7.59-7.21-12.81-15.8-15.5-25.51l-.03-.12c-.4-1.27-.68-2.65-.83-4.1-.36-4.62,1.18-8.44,4.71-11.59,1.47-.94,3.08-1.47,4.92-1.62.3-.03.58-.04.87-.04,4.8,0,10.67,3.35,17.45,9.97,8.88,10.04,10.81,11.29,12.14,11.76l1.44.16.55-.06c1.78-.21,3.57-1.14,10.45-11.06,8.03-9.24,12.72-11.45,15.24-11.66.51-.04,1.02-.06,1.49-.06,4.86,0,6.5,2.12,7.37,4.01.6,1.76,1.14,5.18.38,11.6l-.02.29c-.18,6.48-3.28,17.7-9.22,33.37-3.46,8.66-8.07,16.69-13.67,23.82-11.32,14.34-15.01,17.89-16.21,18.73l-.28.22c-9.32,8.24-19.22,13.16-29.43,14.61-.33.02-.66.03-.97.03Z"/>
      <path class="st1" d="M776.14,161.74c-4.19,0-8.52-2.38-12.86-7.07-2.27-3.11-3.37-6.48-3.37-10.29v-.12c-.24-6.6-.29-8.63-.29-9.18l-.3-1.35c-1.12-2.4-3.18-3.78-5.65-3.78-4.84,0-6.22,6.38-6.99,13.27-.72,7.16-2.6,12.18-5.61,14.95l-.14.14c-1.2,1.25-4.15,2.77-11.4,2.89h-1.6c-.97,0-3.76-.75-8.61-7.68-1.04-1.49-2.6-5.05-4.16-13.56-.5-2.56-.75-4.66-.75-6.27v-7.39c.15-21.77,3.22-37.92,9.15-47.97l.06-.1c5.05-9.32,11.69-15.82,19.74-19.32,2.93-1.34,6.45-2,10.53-2,1.91,0,3.97.15,6.14.43l.16.02c4.88.4,9.86,2.49,14.78,6.21,6.18,5.3,10.87,14.57,13.94,27.56,2.5,9.78,3.76,19.66,3.76,29.42v4.94c0,5.36-1.43,13.79-4.25,25.05-1.89,4.85-4.67,8.27-8.5,10.43-1.21.51-2.3.77-3.23.77h-.55ZM755.06,90.65c-2.02,0-4.93.73-7.33,4.21-1.67,2.42-2.52,5.32-2.52,8.62s.85,6.23,2.53,8.64c2.4,3.46,5.31,4.18,7.32,4.18s4.95-.73,7.36-4.18c1.68-2.41,2.53-5.32,2.53-8.64s-.85-6.2-2.52-8.62c-2.41-3.48-5.33-4.21-7.36-4.21Z"/>
      <path class="st1" d="M828.41,161.48c-.91,0-2.66-.3-5.91-1.66-2.38-1.05-6.15-4.49-10.32-14.72-3.19-11.05-4.9-22.07-5.09-32.75-.19-9.33.62-17.69,2.39-24.88l.04-.2c3.82-21.11,10.22-31.86,19.03-31.95h.3c9.03,0,16.36,4.25,22.41,13.01,2.29,4.17,4.26,6.75,6.94,6.75,3.19,0,4.85-3.32,6.94-9.86,2.48-5.12,5.6-8.42,9.53-10.08,1.46-.61,3.17-.93,5.05-.94.35,0,2.24.26,5.62,5.46l.08.12c2.05,2.86,4.29,8.27,6.65,16.06,1.66,9.33,2.46,16.78,2.4,22.14l.06,2.02c-.09,18.83-1.3,31.72-3.6,38.32l-.15.64c-.76,5.77-3.61,12.21-8.48,19.15-1.84,1.9-4.51,2.85-8.15,2.9-1.94,0-5.37-.91-10.83-5.23-5.55-5.61-9.51-12.04-11.78-19.12l-.4-.82c-1.36-2.01-2.92-3.86-5.15-3.86h-.15s.13,0,.13,0c-4.06,0-4.91,4.95-5.48,11-3.64,12.77-5.84,14.77-6.24,15.04l-.91.93c-1.1,1.71-2.62,2.49-4.94,2.53Z"/>
    </g>
  </g>
</svg>