<svg width="60" height="80" viewBox="0 0 60 80" fill="none" xmlns="http://www.w3.org/2000/svg">
<rect x="1" y="1" width="58" height="78" rx="3" fill="white"/>
<path d="M16 56V35.9L15.3 35.2C14.9334 34.8333 14.675 34.45 14.525 34.05C14.375 33.65 14.3 33.2167 14.3 32.75C14.3 32.2833 14.375 31.8417 14.525 31.425C14.675 31.0083 14.9334 30.6167 15.3 30.25L21.7 23.8H30.7001L38.5 16L42.25 19.75C43.55 21.05 44.525 22.5417 45.175 24.225C45.825 25.9083 46.1667 27.6 46.2001 29.3C46.1667 31 45.825 32.6917 45.175 34.375C44.525 36.0583 43.55 37.55 42.25 38.85L38 43.1V56H16ZM19 53H35V41.85L40.1 36.75C41.1334 35.7167 41.9084 34.5583 42.425 33.275C42.9417 31.9917 43.2001 30.6667 43.2001 29.3C43.2001 27.9333 42.9417 26.6167 42.425 25.35C41.9084 24.0833 41.1334 22.9333 40.1 21.9L38.5 20.25L31.9501 26.8H22.95L21.3 28.45L25 32.15C25.9334 33.0833 26.6334 34.125 27.1 35.275C27.5667 36.425 27.8 37.6167 27.8 38.85C27.8 40.0167 27.6 41.15 27.2 42.25C26.8 43.35 26.1834 44.35 25.35 45.25L19 38.9V53Z" fill="#8E8E93"/>
<rect x="1" y="1" width="58" height="78" rx="3" stroke="#8E8E93" stroke-width="2"/>
</svg>
