<svg width="56" height="80" viewBox="0 0 56 80" fill="none" xmlns="http://www.w3.org/2000/svg">
<rect x="1" y="1" width="54" height="78" rx="3" fill="white"/>
<rect width="40" height="40" transform="translate(8 12)" fill="white"/>
<path d="M27.9999 15.3333C29.1666 15.3333 30.243 15.4305 31.2291 15.625C32.2152 15.8194 33.4027 16.1805 34.7916 16.7083L31.3749 18.2083C30.8471 18.0694 30.3471 17.9722 29.8749 17.9166C29.4027 17.8611 28.7777 17.8333 27.9999 17.8333C27.4444 17.8333 26.8124 17.875 26.1041 17.9583C25.3958 18.0416 24.7499 18.1805 24.1666 18.375C26.2499 20.7361 28.3819 22.6389 30.5624 24.0833C32.743 25.5278 35.7916 26.0833 39.7083 25.75L40.6666 28.125C36.9721 28.5972 33.7569 28.25 31.0208 27.0833C28.2846 25.9166 25.9305 24.1944 23.9583 21.9166C23.0138 24.1666 21.6596 26.1319 19.8958 27.8125C18.1319 29.493 16.111 30.7916 13.8333 31.7083C13.8333 35.7361 15.2083 39.1528 17.9583 41.9583C20.7083 44.7639 24.0555 46.1666 27.9999 46.1666C31.9721 46.1666 35.3263 44.7847 38.0624 42.0208C40.7985 39.2569 42.1666 35.9166 42.1666 32C42.1666 31.3889 42.1319 30.8403 42.0624 30.3541L41.8749 29.0416L43.3749 25.5C43.8194 26.6944 44.1458 27.7639 44.3541 28.7083C44.5624 29.6528 44.6666 30.75 44.6666 32C44.6666 34.3055 44.236 36.4722 43.3749 38.5C42.5138 40.5278 41.3333 42.2917 39.8333 43.7917C38.3333 45.2917 36.5694 46.4791 34.5416 47.3541C32.5138 48.2291 30.3333 48.6666 27.9999 48.6666C25.6666 48.6666 23.486 48.2361 21.4583 47.375C19.4305 46.5139 17.6666 45.3333 16.1666 43.8333C14.6666 42.3333 13.486 40.5694 12.6249 38.5416C11.7638 36.5139 11.3333 34.3333 11.3333 32C11.3333 29.6666 11.7638 27.4861 12.6249 25.4583C13.486 23.4305 14.6666 21.6666 16.1666 20.1666C17.6666 18.6666 19.4305 17.4861 21.4583 16.625C23.486 15.7639 25.6666 15.3333 27.9999 15.3333ZM22.7499 31.5416C23.3888 31.5416 23.9235 31.7569 24.3541 32.1875C24.7846 32.618 24.9999 33.1528 24.9999 33.7916C24.9999 34.4305 24.7846 34.9653 24.3541 35.3958C23.9235 35.8264 23.3888 36.0416 22.7499 36.0416C22.111 36.0416 21.5763 35.8264 21.1458 35.3958C20.7152 34.9653 20.4999 34.4305 20.4999 33.7916C20.4999 33.1528 20.7152 32.618 21.1458 32.1875C21.5763 31.7569 22.111 31.5416 22.7499 31.5416ZM33.2916 31.5416C33.9305 31.5416 34.4652 31.7569 34.8958 32.1875C35.3263 32.618 35.5416 33.1528 35.5416 33.7916C35.5416 34.4305 35.3263 34.9653 34.8958 35.3958C34.4652 35.8264 33.9305 36.0416 33.2916 36.0416C32.6527 36.0416 32.118 35.8264 31.6874 35.3958C31.2569 34.9653 31.0416 34.4305 31.0416 33.7916C31.0416 33.1528 31.2569 32.618 31.6874 32.1875C32.118 31.7569 32.6527 31.5416 33.2916 31.5416V31.5416ZM41.4999 12.7083L43.3333 16.9583L47.4583 18.6666L43.3333 20.4166L41.4999 24.6666L39.6249 20.4166L35.4999 18.6666L39.6249 16.9583L41.4999 12.7083ZM14.2499 28.6666C15.5833 28.1666 17.1041 27.0416 18.8124 25.2916C20.5208 23.5416 21.736 21.4166 22.4583 18.9166C20.0416 20 18.2152 21.375 16.9791 23.0416C15.743 24.7083 14.8333 26.5833 14.2499 28.6666Z" fill="#8E8E93"/>
<rect x="1" y="1" width="54" height="78" rx="3" stroke="#8E8E93" stroke-width="2"/>
</svg>
