<?xml version="1.0" encoding="utf-8"?>
<!-- Generator: Adobe Illustrator 27.7.0, SVG Export Plug-In . SVG Version: 6.00 Build 0)  -->
<svg version="1.1" id="레이어_1" xmlns="http://www.w3.org/2000/svg" xmlns:xlink="http://www.w3.org/1999/xlink" x="0px"
	 y="0px" viewBox="0 0 3000 3000" style="enable-background:new 0 0 3000 3000;" xml:space="preserve">
<g>
	<path id="패스_648_00000150812713942215941000000015388459179643267253_" d="M2002.83,1024.46H997.64
		c-249.17,0.27-451.09,202.19-451.38,451.36v48.83c0.01,232.07,175.98,426.32,406.92,449.2c0,0,0.01,0,0.01,0l121.87,0.96h0.22
		c17.83,0.06,32.34-14.35,32.4-32.19c0.06-17.83-14.35-32.34-32.19-32.4l-117.44-0.8c0,0-0.01,0-0.01,0
		c-197.24-20.32-347.19-186.49-347.2-384.78v-48.83c0.25-213.51,173.28-386.54,386.79-386.78h1005.21
		c213.51,0.24,386.55,173.26,386.79,386.78v48.83c-0.25,213.52-173.29,386.55-386.81,386.78h-563.8c-18.96,0-34.24,15.52-33,34.44
		c1.11,16.83,15.11,30.14,32.22,30.14h564.58c249.17-0.27,451.09-202.19,451.38-451.36v-48.83
		C2453.92,1226.65,2251.99,1024.73,2002.83,1024.46"/>
	<g>
		<path d="M2169.73,1601.53c-17.66,15.06-32.19,25.16-43.81,31.92c-10.66,6.2-23.43-4.11-19.55-15.82c0.03-0.09,0.06-0.18,0.09-0.27
			c3.14-7.46,16.09-39.53,22.7-75.81c14.93-81.96-14.4-118.43-41.64-134.58c-11.33-6.72-30.14-13.16-55.33-5.62
			c-13.52,4.04-27.33,11.61-42.23,23.14c-1.64,1.27-3.31,2.61-4.98,3.99l8.1-19.13l-66.07-34.94
			c-25.9,66.46-77.47,178.29-121.88,222.12c-2.78,2.75-5.43,5.17-7.95,7.3c-35.6,29.39-32.36-22.74-32.36-22.74v0
			c0.89-15.83,3.78-37.69,10.52-67.57c7.77-34.46,17.8-66.46,23.25-82.91l-67.16-35.51c-1.63,4.64-6.96,20.06-13.31,41.34
			c-12.26-16.03-28.02-28.52-46.26-36.18c-33.45-14.05-72.65-10.85-107.55,8.78c-32.32,18.19-58.75,48.74-74.41,86.03
			c-8.76,20.84-13.65,42.61-14.59,64.01c-33.13,17.28-63.86,33.97-92.08,50.03l47.06-162.97c1.17-3.77,2.2-12.18,3.09-15.19
			l-61.25-32.39l-6.56,27.7c-6.44,20.64-17.8,53.34-33.86,85.89c-17.57,35.6-53.25,95.32-94.83,95.32c-10.75,0-13.29-3.65-14.8-5.82
			c-3.77-5.41-14.93-28.53-0.56-98.92c6.17-30.2,14.79-62.51,19.3-75.88l-60.52-32c-1.2,3.25-15.39,47.15-24.92,93.44
			c-14.54,70.61-10.91,120.33,11.12,152c11.06,15.91,32.26,34.88,70.38,34.88c21.49,0,42.21-5.96,61.95-17.78l-0.93,3.22
			c-25.44,16.45-47.65,32.05-66.53,46.74c-43.74,34.05-58.75,54.68-66.23,67.23l-0.23,0.38c-12.15,20.25-16.29,60.69-1.79,90.71
			c10.73,22.22,29.95,36.21,54.12,39.38c4.35,0.57,8.63,0.85,12.83,0.85c27.9,0,52.26-12.49,69.54-35.97
			c9.06-12.31,15.9-26.33,20.33-41.66l35.89-124.28c34.46-21.37,77.71-46.25,131.96-74.98c12.74,28.75,34.49,50.96,61.75,62.41
			c13.76,5.78,28.49,8.64,43.49,8.64c21.47,0,43.52-5.87,64.06-17.43c15.63-8.8,29.88-20.5,42.21-34.45
			c0.81,1.87,1.66,3.69,2.58,5.45c8.97,17.29,22.8,29.33,40.12,35c10.09,4.17,31,9.44,59.48-0.86
			c16.73-6.05,33.43-16.69,49.94-31.77l-4.83,19.51l68.28,36.1c0.29-4.85,4.08-59.89,29.2-117.77l2.83-6.33
			c18.26-39.67,46.78-79.85,91.29-105.41c7.56-5.58,18.43-1.01,19.49,8.33c1.09,9.61,0.42,22.18-2.15,36.66
			c-5.69,32.12-18.38,61.57-18.49,61.82l-0.54,1.23l-0.45,1.26c-0.6,1.68-5.9,16.94-8.72,35.51c-4.88,32.2,0.38,57.23,15.64,74.4
			c14.36,16.15,32.86,20.5,48.63,20.5c8.22,0,15.69-1.18,21.45-2.49c33.98-7.72,73.36-31.6,117.07-70.97
			c3.22-2.9,6.34-5.78,9.35-8.6L2169.73,1601.53z M1227.81,1845.23c-6.02-0.46-11.5-3.9-14.34-9.23
			c-6.71-12.62-7.15-41.73,66.06-94.66C1279.53,1741.34,1273.2,1848.67,1227.81,1845.23z M1652.08,1573.91L1652.08,1573.91
			c-11.06,22.29-27.71,40.18-45.7,49.09c-8.74,4.33-25.65,10.26-40.65,1.37c-15-8.89-19.67-27.62-21.12-37.99
			c-2.98-21.34,1.65-46.36,12.71-68.65c11.06-22.29,27.71-40.18,45.7-49.09c6.13-3.04,16.29-6.86,26.98-5.8
			c4.55,0.45,9.19,1.78,13.67,4.44c15,8.89,19.67,27.62,21.12,37.99C1667.77,1526.6,1663.14,1551.62,1652.08,1573.91z"/>
	</g>
	<path d="M866.55,1570.78c-56.64-68.92-46.69-170.71,22.24-227.36c29.95-24.62,67.76-37.64,106.52-36.69l-0.06,0.08
		c35.13,0.84,68.47,13.06,95.45,34.08l47.22-51.14c-75.24-61.78-184.57-71.27-270.99-15.93
		c-107.36,68.76-138.66,211.53-69.91,318.89c41.38,64.62,112.17,104.45,188.89,106.29c1.84,0,3.66,0,5.5,0
		c53.42,0,105.2-18.54,146.48-52.44l-43.98-53.55C1024.98,1649.65,923.19,1639.7,866.55,1570.78z"/>
</g>
</svg>
